<?xml version="1.0" encoding="UTF-8" standalone="no"?>
<!-- Created with Inkscape (http://www.inkscape.org/) -->

<svg
   width="89.943901mm"
   height="48.050812mm"
   viewBox="0 0 89.943901 48.050812"
   version="1.1"
   id="svg1"
   xml:space="preserve"
   xmlns:inkscape="http://www.inkscape.org/namespaces/inkscape"
   xmlns:sodipodi="http://sodipodi.sourceforge.net/DTD/sodipodi-0.dtd"
   xmlns="http://www.w3.org/2000/svg"
   xmlns:svg="http://www.w3.org/2000/svg"><sodipodi:namedview
     id="namedview1"
     pagecolor="#ffffff"
     bordercolor="#000000"
     borderopacity="0.25"
     inkscape:showpageshadow="2"
     inkscape:pageopacity="0.0"
     inkscape:pagecheckerboard="0"
     inkscape:deskcolor="#d1d1d1"
     inkscape:document-units="mm"><inkscape:page
       x="0"
       y="1.1240753e-22"
       width="89.943901"
       height="48.050816"
       id="page2"
       margin="0"
       bleed="0" /></sodipodi:namedview><defs
     id="defs1" /><g
     inkscape:label="Plast 1"
     inkscape:groupmode="layer"
     id="layer1"
     transform="translate(-59.086134,-98.779742)"><path
       style="fill:#000000"
       d="m 59.361373,146.71455 c -0.26042,-0.0636 -0.275237,-1.23643 -0.275237,-21.78685 0,-11.94579 0.02936,-21.71963 0.06524,-21.71963 0.06592,0 1.09984,1.53771 7.440852,11.06648 l 3.495509,5.25277 -0.0354,13.61303 -0.0354,13.61304 -5.190169,0.0142 c -2.854593,0.008 -5.314025,-0.0161 -5.465405,-0.053 z m 31.7537,-0.58829 c -0.291304,-0.37674 -1.553733,-2.19799 -2.805397,-4.04723 -1.251663,-1.84924 -4.103602,-6.05616 -6.337641,-9.34871 -2.234039,-3.29255 -4.911537,-7.24115 -5.949997,-8.77467 -1.038459,-1.53351 -2.220372,-3.26795 -2.626473,-3.85429 -0.723562,-1.04471 -2.338371,-3.44155 -10.331658,-15.33517 l -3.968176,-5.904448 5.767576,-0.04306 c 4.482514,-0.03346 5.81027,0.0031 5.959192,0.164012 0.195089,0.210825 2.05546,2.969506 9.098675,13.492086 2.173655,3.24745 4.69728,7.01153 5.608054,8.36464 3.134457,4.65674 4.621206,6.90173 5.405673,8.16256 0.432515,0.69515 0.839471,1.26487 0.904348,1.26604 0.06488,0.001 0.117959,-1.14187 0.117959,-2.54008 v -2.54219 h 5.345209 5.345213 l 0.0415,10.74103 c 0.0354,9.1551 0.009,10.75422 -0.18175,10.83036 -0.12282,0.0491 -2.617173,0.0814 -5.54301,0.0717 l -5.319704,-0.0176 z m 12.598657,0.57523 c -0.23789,-0.0285 -0.43252,-0.0766 -0.43252,-0.10679 0,-0.0302 0.65467,-0.977 1.45482,-2.10402 0.80015,-1.12702 3.34846,-4.73234 5.6629,-8.01183 2.31445,-3.27948 5.41,-7.66023 6.87902,-9.73498 1.46902,-2.07476 2.67179,-3.82199 2.67283,-3.88274 0.001,-0.0607 -0.24223,-0.44395 -0.5406,-0.85157 -0.4922,-0.67243 -2.12895,-3.02416 -6.1223,-8.79673 -0.78004,-1.12758 -2.15983,-3.12033 -3.06621,-4.42833 -4.27227,-6.16536 -6.78318,-9.836165 -6.78318,-9.916602 0,-0.04849 2.8487,-0.08626 6.33043,-0.08395 l 6.33044,0.0042 1.42735,2.086942 c 0.78505,1.14782 3.60978,5.26059 6.27719,9.13948 2.66741,3.8789 5.27345,7.67989 5.79122,8.44664 0.51776,0.76676 1.32432,1.93423 1.79235,2.59437 0.46803,0.66015 0.89016,1.3068 0.93808,1.43701 0.0481,0.13072 -0.19081,0.62151 -0.53348,1.09591 -0.34132,0.47254 -2.99056,4.25423 -5.8872,8.40375 -9.6294,13.79441 -10.20342,14.58818 -10.64093,14.71464 -0.38329,0.11079 -10.62174,0.10599 -11.55021,-0.005 z m 33.1142,-0.006 c -0.13678,-0.0933 -1.77934,-2.42191 -4.2398,-6.01056 -0.43294,-0.63145 -1.66854,-2.40279 -2.74579,-3.9363 -1.07724,-1.53352 -2.01247,-2.87907 -2.07828,-2.99011 -0.0755,-0.12735 0.98967,-1.79273 2.88472,-4.51035 1.6524,-2.36964 3.0647,-4.33077 3.13845,-4.35806 0.0738,-0.0273 0.93267,1.1167 1.90871,2.5422 0.97605,1.42549 2.79972,4.06792 4.05261,5.87205 1.25289,1.80414 2.91531,4.20283 3.69427,5.33041 0.77897,1.12759 2.35331,3.39002 3.49855,5.02762 l 2.08224,2.97747 -0.5149,0.10073 c -0.68101,0.13323 -11.48054,0.0915 -11.68078,-0.0451 z M 88.087411,121.08543 c -0.895038,-1.308 -1.629048,-2.43353 -1.631135,-2.50119 -0.0021,-0.0677 3.642964,-0.12301 8.100113,-0.12301 h 8.103901 l -0.0434,2.50119 -0.0434,2.5012 h -6.429352 -6.429355 z m 44.105369,-2.54437 -1.36442,-2.0333 1.22106,-1.77047 c 0.67159,-0.97376 3.34377,-4.8097 5.93818,-8.52431 2.59441,-3.7146 4.81756,-6.909142 4.94033,-7.098971 0.21549,-0.333187 0.32503,-0.343534 3.16266,-0.298705 l 2.93945,0.04644 -1.28075,1.804136 c -0.70441,0.99227 -2.23949,3.17749 -3.41128,4.85602 -1.17179,1.67854 -3.43987,4.9156 -5.04017,7.19348 -1.6003,2.27787 -3.49845,4.98228 -4.21812,6.0098 -0.71966,1.02752 -1.35663,1.86393 -1.4155,1.85869 -0.0589,-0.005 -0.72101,-0.9245 -1.47144,-2.04281 z m -33.996884,-1.82929 c -0.05767,-0.0601 -0.104852,-0.34069 -0.104852,-0.62344 0,-0.43577 -0.192897,-0.69396 -1.266236,-1.69479 l -1.266235,-1.18071 h -2.351155 -2.351155 v -2.46018 -2.46019 h 1.849486 1.849486 l 1.689266,-2.19877 c 0.929095,-1.20932 1.689265,-2.2426 1.689265,-2.29617 0,-0.0536 -2.972551,-0.0974 -6.60567,-0.0974 h -6.60567 v -2.46019 -2.460185 h 8.964838 8.964836 v 3.548735 3.54873 l -0.98865,1.16662 c -0.54376,0.64165 -1.33285,1.59341 -1.753521,2.11502 l -0.764864,0.94839 1.753515,1.80556 1.75352,1.80557 v 1.55137 1.55138 h -2.17568 c -1.196618,0 -2.222856,-0.0492 -2.280524,-0.10934 z m 27.138514,-13.39976 c 0.11089,-0.21346 0.76782,-1.31908 1.45984,-2.45694 l 1.25822,-2.068844 6.42826,-0.0032 c 6.34423,-0.0032 6.42544,9.38e-4 6.21248,0.316834 -0.28041,0.415935 -2.12682,3.1935 -2.64509,3.97902 l -0.4017,0.60882 -6.25681,0.006 -6.25682,0.006 z"
       id="path1" /></g></svg>
